<svg aria-hidden="true" style="position: absolute; width: 0; height: 0; overflow: hidden;" version="1.1" xmlns="http://www.w3.org/2000/svg" xmlns:xlink="http://www.w3.org/1999/xlink">
<defs>
<symbol id="icon-close2" viewBox="0 0 24 24">
<path d="M17.414 6.586c-0.78-0.781-2.048-0.781-2.828 0l-2.586 2.586-2.586-2.586c-0.78-0.781-2.048-0.781-2.828 0-0.781 0.781-0.781 2.047 0 2.828l2.585 2.586-2.585 2.586c-0.781 0.781-0.781 2.047 0 2.828 0.39 0.391 0.902 0.586 1.414 0.586s1.024-0.195 1.414-0.586l2.586-2.586 2.586 2.586c0.39 0.391 0.902 0.586 1.414 0.586s1.024-0.195 1.414-0.586c0.781-0.781 0.781-2.047 0-2.828l-2.585-2.586 2.585-2.586c0.781-0.781 0.781-2.047 0-2.828z"></path>
</symbol>
<symbol id="icon-chevron-right" viewBox="0 0 24 24">
<path d="M8.586 5.586c-0.781 0.781-0.781 2.047 0 2.828l3.585 3.586-3.585 3.586c-0.781 0.781-0.781 2.047 0 2.828 0.39 0.391 0.902 0.586 1.414 0.586s1.024-0.195 1.414-0.586l6.415-6.414-6.415-6.414c-0.78-0.781-2.048-0.781-2.828 0z"></path>
</symbol>
<symbol id="icon-arrow-right-thick" viewBox="0 0 24 24">
<path d="M10.586 6.586c-0.781 0.779-0.781 2.047 0 2.828l1.586 1.586h-7.244c-1.104 0-2 0.895-2 2s0.896 2 2 2h7.244l-1.586 1.586c-0.781 0.779-0.781 2.047 0 2.828 0.391 0.391 0.902 0.586 1.414 0.586s1.023-0.195 1.414-0.586l6.414-6.414-6.414-6.414c-0.781-0.781-2.047-0.781-2.828 0z"></path>
</symbol>
<symbol id="icon-arrow-left-thick" viewBox="0 0 24 24">
<path d="M18 11h-7.244l1.586-1.586c0.781-0.781 0.781-2.049 0-2.828-0.781-0.781-2.047-0.781-2.828 0l-6.414 6.414 6.414 6.414c0.39 0.391 0.902 0.586 1.414 0.586s1.023-0.195 1.414-0.586c0.781-0.781 0.781-2.049 0-2.828l-1.586-1.586h7.244c1.104 0 2-0.896 2-2 0-1.105-0.896-2-2-2z"></path>
</symbol>
<symbol id="icon-th-menu" viewBox="0 0 24 24">
<path d="M19 17h-14c-1.103 0-2 0.897-2 2s0.897 2 2 2h14c1.103 0 2-0.897 2-2s-0.897-2-2-2z"></path>
<path d="M19 10h-14c-1.103 0-2 0.897-2 2s0.897 2 2 2h14c1.103 0 2-0.897 2-2s-0.897-2-2-2z"></path>
<path d="M19 3h-14c-1.103 0-2 0.897-2 2s0.897 2 2 2h14c1.103 0 2-0.897 2-2s-0.897-2-2-2z"></path>
</symbol>
<symbol id="icon-close" viewBox="0 0 24 24">
<path d="M12 3c-4.963 0-9 4.038-9 9s4.037 9 9 9 9-4.038 9-9-4.037-9-9-9zM12 19c-3.859 0-7-3.14-7-7s3.141-7 7-7 7 3.14 7 7-3.141 7-7 7z"></path>
<path d="M12.707 12l2.646-2.646c0.194-0.194 0.194-0.512 0-0.707-0.195-0.194-0.513-0.194-0.707 0l-2.646 2.646-2.646-2.647c-0.195-0.194-0.513-0.194-0.707 0-0.195 0.195-0.195 0.513 0 0.707l2.646 2.647-2.646 2.646c-0.195 0.195-0.195 0.513 0 0.707 0.097 0.098 0.225 0.147 0.353 0.147s0.256-0.049 0.354-0.146l2.646-2.647 2.646 2.646c0.098 0.098 0.226 0.147 0.354 0.147s0.256-0.049 0.354-0.146c0.194-0.194 0.194-0.512 0-0.707l-2.647-2.647z"></path>
</symbol>
<symbol id="icon-arrow-right-outline" viewBox="0 0 24 24">
<path d="M12 21c-0.801 0-1.555-0.312-2.121-0.879s-0.88-1.321-0.879-2.123c0-0.746 0.271-0.998 0.764-1.998h-4.836c-1.654 0-3-1.347-3-3 0-1.654 1.346-3 3-3h4.836c-0.494-1-0.764-1.255-0.764-2.001 0.001-0.802 0.312-1.554 0.88-2.121 1.132-1.132 3.108-1.133 4.241 0.001l7.121 7.121-7.121 7.121c-0.566 0.567-1.32 0.879-2.121 0.879zM4.928 12c-0.552 0-1 0.449-1 1s0.448 1 1 1h9.658l-3.293 3.293c-0.189 0.189-0.293 0.439-0.293 0.706 0 0.269 0.104 0.519 0.293 0.708 0.379 0.378 1.035 0.378 1.414 0l5.707-5.707-5.707-5.707c-0.379-0.378-1.035-0.378-1.414 0-0.189 0.189-0.293 0.439-0.293 0.706 0 0.268 0.104 0.519 0.293 0.708l3.293 3.293h-9.658z"></path>
</symbol>
<symbol id="icon-arrow-left-outline" viewBox="0 0 24 24">
<path d="M10.928 21c-0.801 0-1.555-0.312-2.121-0.879l-7.121-7.121 7.121-7.121c1.133-1.134 3.109-1.134 4.242 0 0.566 0.564 0.879 1.317 0.879 2.119 0 0.746-0.27 1.451-0.764 2.002h4.836c1.654 0 3 1.346 3 3s-1.346 3-3 3h-4.836c0.493 0.549 0.764 1.252 0.764 1.998 0.002 0.802-0.312 1.557-0.879 2.124-0.567 0.566-1.32 0.878-2.121 0.878zM4.514 13l5.707 5.707c0.379 0.378 1.035 0.378 1.414 0 0.189-0.189 0.293-0.441 0.293-0.708s-0.104-0.517-0.291-0.705l-3.295-3.294h9.658c0.552 0 1-0.449 1-1s-0.448-1-1-1h-9.658l3.293-3.293c0.189-0.189 0.293-0.441 0.293-0.708s-0.104-0.517-0.292-0.705c-0.381-0.38-1.036-0.379-1.415-0.001l-5.707 5.707z"></path>
</symbol>
<symbol id="icon-thin-up" viewBox="0 0 24 24">
<path d="M3.098 16.669c-0.326 0.322-0.851 0.322-1.175 0s-0.325-0.841 0-1.163l9.49-9.396c0.324-0.322 0.848-0.322 1.175 0l9.49 9.396c0.324 0.322 0.324 0.841 0 1.163-0.325 0.322-0.851 0.322-1.174 0l-8.904-8.569-8.902 8.569z"></path>
</symbol>
<symbol id="icon-mail" viewBox="0 0 32 32">
<path d="M26.666 0h-21.332c-2.934 0-5.334 2.4-5.334 5.333v21.333c0 2.934 2.4 5.334 5.334 5.334h21.332c2.936 0 5.334-2.4 5.334-5.334v-21.333c0-2.934-2.398-5.333-5.334-5.333zM8 8h16c0.286 0 0.563 0.061 0.817 0.177l-8.817 10.286-8.817-10.287c0.254-0.116 0.531-0.177 0.817-0.177zM6 22v-12c0-0.042 0.002-0.084 0.004-0.125l5.864 6.842-5.8 5.8c-0.045-0.167-0.069-0.34-0.069-0.517zM24 24h-16c-0.177 0-0.35-0.024-0.517-0.069l5.691-5.691 2.826 3.297 2.826-3.297 5.691 5.691c-0.167 0.045-0.34 0.069-0.517 0.069zM26 22c0 0.177-0.024 0.35-0.069 0.517l-5.8-5.8 5.864-6.842c0.003 0.041 0.004 0.083 0.004 0.125v12z"></path>
</symbol>
<symbol id="icon-facebook" viewBox="0 0 32 32">
<path d="M29 0h-26c-1.65 0-3 1.35-3 3v26c0 1.65 1.35 3 3 3h13v-14h-4v-4h4v-2c0-3.306 2.694-6 6-6h4v4h-4c-1.1 0-2 0.9-2 2v2h6l-1 4h-5v14h9c1.65 0 3-1.35 3-3v-26c0-1.65-1.35-3-3-3z"></path>
</symbol>
<symbol id="icon-instagram" viewBox="0 0 32 32">
<path d="M16 2.881c4.275 0 4.781 0.019 6.462 0.094 1.563 0.069 2.406 0.331 2.969 0.55 0.744 0.288 1.281 0.638 1.837 1.194 0.563 0.563 0.906 1.094 1.2 1.838 0.219 0.563 0.481 1.412 0.55 2.969 0.075 1.688 0.094 2.194 0.094 6.463s-0.019 4.781-0.094 6.463c-0.069 1.563-0.331 2.406-0.55 2.969-0.288 0.744-0.637 1.281-1.194 1.837-0.563 0.563-1.094 0.906-1.837 1.2-0.563 0.219-1.413 0.481-2.969 0.55-1.688 0.075-2.194 0.094-6.463 0.094s-4.781-0.019-6.463-0.094c-1.563-0.069-2.406-0.331-2.969-0.55-0.744-0.288-1.281-0.637-1.838-1.194-0.563-0.563-0.906-1.094-1.2-1.837-0.219-0.563-0.481-1.413-0.55-2.969-0.075-1.688-0.094-2.194-0.094-6.463s0.019-4.781 0.094-6.463c0.069-1.563 0.331-2.406 0.55-2.969 0.288-0.744 0.638-1.281 1.194-1.838 0.563-0.563 1.094-0.906 1.838-1.2 0.563-0.219 1.412-0.481 2.969-0.55 1.681-0.075 2.188-0.094 6.463-0.094zM16 0c-4.344 0-4.887 0.019-6.594 0.094-1.7 0.075-2.869 0.35-3.881 0.744-1.056 0.412-1.95 0.956-2.837 1.85-0.894 0.888-1.438 1.781-1.85 2.831-0.394 1.019-0.669 2.181-0.744 3.881-0.075 1.713-0.094 2.256-0.094 6.6s0.019 4.887 0.094 6.594c0.075 1.7 0.35 2.869 0.744 3.881 0.413 1.056 0.956 1.95 1.85 2.837 0.887 0.887 1.781 1.438 2.831 1.844 1.019 0.394 2.181 0.669 3.881 0.744 1.706 0.075 2.25 0.094 6.594 0.094s4.888-0.019 6.594-0.094c1.7-0.075 2.869-0.35 3.881-0.744 1.050-0.406 1.944-0.956 2.831-1.844s1.438-1.781 1.844-2.831c0.394-1.019 0.669-2.181 0.744-3.881 0.075-1.706 0.094-2.25 0.094-6.594s-0.019-4.887-0.094-6.594c-0.075-1.7-0.35-2.869-0.744-3.881-0.394-1.063-0.938-1.956-1.831-2.844-0.887-0.887-1.781-1.438-2.831-1.844-1.019-0.394-2.181-0.669-3.881-0.744-1.712-0.081-2.256-0.1-6.6-0.1v0z"></path>
<path d="M16 7.781c-4.537 0-8.219 3.681-8.219 8.219s3.681 8.219 8.219 8.219 8.219-3.681 8.219-8.219c0-4.537-3.681-8.219-8.219-8.219zM16 21.331c-2.944 0-5.331-2.387-5.331-5.331s2.387-5.331 5.331-5.331c2.944 0 5.331 2.387 5.331 5.331s-2.387 5.331-5.331 5.331z"></path>
<path d="M26.462 7.456c0 1.060-0.859 1.919-1.919 1.919s-1.919-0.859-1.919-1.919c0-1.060 0.859-1.919 1.919-1.919s1.919 0.859 1.919 1.919z"></path>
</symbol>
<symbol id="icon-whatsapp" viewBox="0 0 32 32">
<path d="M27.281 4.65c-2.994-3-6.975-4.65-11.219-4.65-8.738 0-15.85 7.112-15.85 15.856 0 2.794 0.731 5.525 2.119 7.925l-2.25 8.219 8.406-2.206c2.319 1.262 4.925 1.931 7.575 1.931h0.006c0 0 0 0 0 0 8.738 0 15.856-7.113 15.856-15.856 0-4.238-1.65-8.219-4.644-11.219zM16.069 29.050v0c-2.369 0-4.688-0.637-6.713-1.837l-0.481-0.288-4.987 1.306 1.331-4.863-0.313-0.5c-1.325-2.094-2.019-4.519-2.019-7.012 0-7.269 5.912-13.181 13.188-13.181 3.519 0 6.831 1.375 9.319 3.862 2.488 2.494 3.856 5.8 3.856 9.325-0.006 7.275-5.919 13.188-13.181 13.188zM23.294 19.175c-0.394-0.2-2.344-1.156-2.706-1.288s-0.625-0.2-0.894 0.2c-0.262 0.394-1.025 1.288-1.256 1.556-0.231 0.262-0.462 0.3-0.856 0.1s-1.675-0.619-3.188-1.969c-1.175-1.050-1.975-2.35-2.206-2.744s-0.025-0.613 0.175-0.806c0.181-0.175 0.394-0.463 0.594-0.694s0.262-0.394 0.394-0.662c0.131-0.262 0.069-0.494-0.031-0.694s-0.894-2.15-1.219-2.944c-0.319-0.775-0.65-0.669-0.894-0.681-0.231-0.012-0.494-0.012-0.756-0.012s-0.694 0.1-1.056 0.494c-0.363 0.394-1.387 1.356-1.387 3.306s1.419 3.831 1.619 4.1c0.2 0.262 2.794 4.269 6.769 5.981 0.944 0.406 1.681 0.65 2.256 0.837 0.95 0.3 1.813 0.256 2.494 0.156 0.762-0.113 2.344-0.956 2.675-1.881s0.331-1.719 0.231-1.881c-0.094-0.175-0.356-0.275-0.756-0.475z"></path>
</symbol>
</defs>
</svg>
